# xmcd CD database file
#
# Track frame offsets:
#	150
#	17157
#	41172
#	59752
#	77162
#	96107
#	112722
#	132415
#	152170
#	172132
#	188300
#	207637
#
# Disc length: 3096 seconds
#
# Revision: 2
# Processed by: cddbd v1.5.1PL0 Copyright (c) Steve Scherf et al.
# Submitted via: CDex 1.51
#
DISCID=a40c160c
DTITLE=GO-BANG'S - グレイテスト ビーナス
DYEAR=1990
DGENRE=Pop
TTITLE0=無敵のビーナス
TTITLE1=あいにきて I・NEED・YOU!
TTITLE2=アイスクリームマン
TTITLE3=Sha・La・La
TTITLE4=8月のDiary
TTITLE5=Don't worry boy
TTITLE6=荒野のエピローグ
TTITLE7=グルーピーベイビー
TTITLE8=人生は絵の具のパック
TTITLE9=間接キッスに御用心
TTITLE10=チヨリスタの星
TTITLE11=テディ・ベア
EXTD=YEAR: 1990
EXTT0=
EXTT1=
EXTT2=
EXTT3=
EXTT4=
EXTT5=
EXTT6=
EXTT7=
EXTT8=
EXTT9=
EXTT10=
EXTT11=
PLAYORDER=
